<svg id="Icons" xmlns="http://www.w3.org/2000/svg" xmlns:xlink="http://www.w3.org/1999/xlink" viewBox="0 0 104 104"><defs><style>.cls-1{fill:url(#Dégradé_sans_nom_46);}.cls-2{fill:url(#Dégradé_sans_nom_46-2);}.cls-3{fill:url(#Dégradé_sans_nom_46-3);}.cls-4{fill:#212833;}.cls-5{fill:none;}</style><linearGradient id="Dégradé_sans_nom_46" x1="10.39" y1="86.23" x2="32.05" y2="64.57" gradientUnits="userSpaceOnUse"><stop offset="0" stop-color="#f0b90b"/><stop offset="0.28" stop-color="#f1bc0f"/><stop offset="0.57" stop-color="#f4c41c"/><stop offset="0.86" stop-color="#f8d230"/><stop offset="0.99" stop-color="#fbda3c"/></linearGradient><linearGradient id="Dégradé_sans_nom_46-2" x1="33.45" y1="78.35" x2="70.55" y2="41.25" xlink:href="#Dégradé_sans_nom_46"/><linearGradient id="Dégradé_sans_nom_46-3" x1="59.97" y1="74.19" x2="105.69" y2="28.46" xlink:href="#Dégradé_sans_nom_46"/></defs><title>Locked account - 104x104 - light bg copie 2</title><rect class="cls-1" x="13.82" y="61.14" width="14.8" height="28.52"/><rect class="cls-2" x="44.75" y="29.95" width="14.5" height="59.71"/><rect class="cls-3" x="75.43" y="13" width="14.8" height="76.66"/><rect class="cls-4" x="13.77" y="88.5" width="76.46" height="2.5"/><rect class="cls-4" x="19.5" y="13.05" width="2.59" height="2.59"/><rect class="cls-4" x="25.18" y="13.05" width="2.59" height="2.59"/><rect class="cls-4" x="13.82" y="13.05" width="2.59" height="2.59"/><rect class="cls-4" x="30.86" y="13.05" width="2.59" height="2.59"/><rect class="cls-4" x="36.54" y="13.05" width="2.59" height="2.59"/><rect class="cls-4" x="42.21" y="13.05" width="2.59" height="2.59"/><rect class="cls-4" x="47.89" y="13.05" width="2.59" height="2.59"/><rect class="cls-4" x="53.57" y="13.05" width="2.59" height="2.59"/><rect class="cls-4" x="59.25" y="13.05" width="2.59" height="2.59"/><rect class="cls-4" x="64.93" y="13.05" width="2.59" height="2.59"/><rect class="cls-4" x="70.61" y="13.05" width="2.59" height="2.59"/><rect class="cls-4" x="76.29" y="13.05" width="2.59" height="2.59"/><rect class="cls-4" x="81.96" y="13.05" width="2.59" height="2.59"/><rect class="cls-4" x="87.64" y="13.05" width="2.59" height="2.59"/><polygon class="cls-4" points="73.31 52.05 63.3 62.06 61.53 60.29 68.52 53.3 30.86 53.3 30.86 50.8 68.52 50.8 61.53 43.8 63.3 42.04 73.31 52.05"/><rect class="cls-4" x="13.82" y="50.76" width="2.59" height="2.59"/><rect class="cls-4" x="19.5" y="50.76" width="2.59" height="2.59"/><rect class="cls-4" x="25.18" y="50.76" width="2.59" height="2.59"/><rect class="cls-4" x="76.29" y="50.76" width="2.59" height="2.59"/><rect class="cls-4" x="81.96" y="50.76" width="2.59" height="2.59"/><rect class="cls-4" x="87.64" y="50.76" width="2.59" height="2.59"/><rect class="cls-5" width="104" height="104"/></svg>
