<svg id="Icons" xmlns="http://www.w3.org/2000/svg" xmlns:xlink="http://www.w3.org/1999/xlink" viewBox="0 0 104 104"><defs><style>.cls-1{fill:none;}.cls-2{fill:url(#Dégradé_sans_nom_46);}.cls-3{fill:#212833;}</style><linearGradient id="Dégradé_sans_nom_46" x1="24.71" y1="51.98" x2="79.33" y2="51.98" gradientTransform="translate(-21.52 52.01) rotate(-45)" gradientUnits="userSpaceOnUse"><stop offset="0" stop-color="#f0b90b"/><stop offset="0.28" stop-color="#f1bc0f"/><stop offset="0.57" stop-color="#f4c41c"/><stop offset="0.86" stop-color="#f8d230"/><stop offset="0.99" stop-color="#fbda3c"/></linearGradient></defs><title>Subscribe - 104x104 - light bg</title><path class="cls-1" d="M0,0V104H104V0Z"/><path class="cls-2" d="M32.71,32.67a27.31,27.31,0,1,0,19.33-8A27.33,27.33,0,0,0,32.71,32.67Z"/><path class="cls-3" d="M50.48,6.51,50.56,9H53l0-2.49Zm5.65.16-.22,2.49c.79.07,1.6.17,2.39.28L58.66,7C57.82,6.85,57,6.75,56.13,6.67Zm-8.7,0c-.84.08-1.69.19-2.52.33l.39,2.51c.78-.13,1.59-.23,2.38-.35Zm14.19.83-.53,2.44c.78.17,1.57.37,2.34.58l.66-2.41C63.28,7.88,62.45,7.68,61.62,7.5Zm-19.71.11c-.83.19-1.66.4-2.47.64l.69,2.4c.77-.22,1.56-.42,2.33-.6ZM67,9l-.79,2.38c.75.26,1.51.55,2.25.86l.92-2.33C68.6,9.58,67.8,9.28,67,9Zm-30.46.19c-.79.29-1.59.61-2.37.94l1,2.29c.73-.32,1.48-.61,2.22-.88Zm-1.37,3.24h0Zm37-1.24-1.11,2.24c.71.36,1.43.74,2.12,1.13l1.24-2.17C73.67,12,72.91,11.57,72.16,11.19Zm-40.78.24c-.75.38-1.5.79-2.23,1.22l1.26,2.16h0c.69-.41,1.4-.81,2.09-1.16ZM77,14l-1.39,2.07c.69.44,1.36.9,2,1.38l1.48-2C78.41,15,77.71,14.47,77,14Zm-50.44.26c-.7.49-1.39,1-2.07,1.49l1.51,2c.66-.49,1.32-1,2-1.41ZM81.5,17.34l-1.62,1.91c.61.52,1.21,1.06,1.79,1.61l1.72-1.81Q82.51,18.17,81.5,17.34Zm-59.37.34c-.63.56-1.26,1.14-1.87,1.73L22,21.2c.58-.56,1.18-1.11,1.77-1.63Zm63.42,3.55L83.7,22.92c.58.59,1.07,1.2,1.58,1.82l1.93-1.58C86.68,22.51,86.12,21.86,85.55,21.23Zm-67.4.38c-.56.63-1.12,1.28-1.65,1.94l1.95,1.57c.55-.63,1-1.24,1.55-1.84Zm70.92,4-2,1.45c.46.65.92,1.33,1.34,2l2.08-1.33C90.07,27,89.56,26.27,89.07,25.58ZM14.67,26c-.48.7-.95,1.41-1.39,2.13l2.13,1.31c.41-.68.86-1.35,1.32-2ZM92,30.33l-2.22,1.19c.38.7.75,1.43,1.09,2.15l2.28-1.07C92.79,31.84,92.4,31.07,92,30.33Zm-80.28.5c-.39.74-.77,1.51-1.12,2.28l2.27,1h0A20,20,0,0,1,14,32Zm82.66,4.58-2.33.91c.29.74.57,1.51.82,2.27l2.37-.79C95,37,94.69,36.19,94.38,35.41Zm-84.92.48c-.3.8-.58,1.61-.83,2.41l2.37.75c.25-.76.51-1.52.8-2.27Zm86.65,4.85-2.42.62c.19.77.37,1.56.53,2.34l2.45-.48C96.51,42.39,96.32,41.56,96.11,40.74Zm-88.3.51c-.2.82-.38,1.66-.53,2.49l2.46.45c.14-.78.31-1.58.5-2.35Zm89.34,5-2.48.31c.1.79.18,1.6.24,2.4l2.49-.18C97.34,47.93,97.26,47.08,97.15,46.24Zm-90.32.52a21.77,21.77,0,0,0-.22,2.54l2.5.15c0-.8.11-1.61.2-2.4Zm88.23,5.07V52c0,.8-.06,1.61-.06,2.41l2.44.14c0-.84.07-1.7.12-2.52v-.17ZM9,52.36H6.53c0,.84,0,1.7.1,2.54l2.49-.14A21.31,21.31,0,0,1,9,52.36Zm85.66,4.9c-.1.8-.22,1.6-.36,2.38l2.46.44c.15-.83.28-1.67.38-2.52ZM9.4,57.62l-2.48.32c.11.84.25,1.69.4,2.52L9.78,60C9.63,59.21,9.5,58.41,9.4,57.62Zm84.32,4.84c-.19.78-.41,1.56-.65,2.32l2.39.74c.25-.8.48-1.63.69-2.45Zm-83.31.35L8,63.44c.21.82.45,1.64.71,2.44l2.38-.76C10.84,64.36,10.61,63.58,10.41,62.81Zm81.71,4.73c-.28.74-.6,1.49-.93,2.22l2.28,1c.35-.76.68-1.56,1-2.32Zm-80.07.3-2.32.92c.31.78.65,1.57,1,2.34L13,70C12.67,69.32,12.35,68.58,12.05,67.84Zm80.07,5.64L89.91,72.3c-.37.7-.78,1.41-1.19,2.09l2.13,1.3v0C91.29,75,91.72,74.24,92.12,73.48ZM14.3,72.6l-2.19,1.2c.4.74.84,1.48,1.28,2.2l2.13-1.32C15.09,74,14.68,73.3,14.3,72.6Zm72.78,4.22c-.44.65-1,1.3-1.44,1.93l2,1.55h0a13.61,13.61,0,0,0,1.43-2Zm-70,.3-2,1.46c.5.66,1,1.34,1.55,2L18.55,79C18.09,78.42,17.56,77.77,17.09,77.12ZM83.82,81c-.46.47-.92,1-1.4,1.47l-.27.27,1.76,1.78.28-.28c.48-.51,1-1,1.48-1.56Zm-63.35.24-1.84,1.7c.57.62,1.17,1.23,1.78,1.82l1.74-1.8C21.57,82.36,21,81.78,20.47,81.19ZM80,84.62c-.6.52-1.23,1-1.87,1.52l1.52,2h0c.67-.51,1.33-1,2-1.62Zm-55.74.23-1.61,1.91c.66.59,1.33,1.08,2,1.59l1.49-2C25.51,85.85,24.88,85.37,24.27,84.85Zm51.46,3a23.55,23.55,0,0,1-2,1.28L75,91.27a21.48,21.48,0,0,0,2.12-1.36ZM28.53,88l-1.4,2.11c.71.47,1.44.92,2.17,1.34l1.23-2.19C29.89,88.86,29.2,88.44,28.53,88Zm42.65,2.51c-.71.34-1.45.68-2.18,1l1,2.29c.81-.34,1.59-.7,2.3-1.06Zm-38.05.18L32,92.94c.76.37,1.54.73,2.32,1.06l1-2.31C34.59,91.39,33.85,91.05,33.13,90.69Zm33.23,1.87c-.76.27-1.53.52-2.29.74l.7,2.4c.81-.24,1.62-.5,2.42-.78ZM38,92.68,37.21,95c.8.28,1.62.54,2.43.77l.66-2.41C39.53,93.18,38.76,92.94,38,92.68ZM61.27,94c-.78.17-1.57.32-2.36.45l.4,2.47c.83-.14,1.69-.3,2.5-.48Zm-18.15.07-.52,2.45c.83.17,1.68.33,2.51.46l.38-2.48C44.7,94.4,43.9,94.26,43.12,94.09Zm12.93.75c-.8.08-1.6.16-2.4.16l.09,2.49c.84,0,1.7-.09,2.54-.16Zm-7.7,0-.21,2.5c.85.07,1.7.14,2.54.14l.08-2.5C50,95,49.15,94.93,48.35,94.86Z"/><polygon class="cls-3" points="66.21 50.73 66.21 53.23 53.27 53.23 53.27 66.17 50.77 66.17 50.77 53.23 37.83 53.23 37.83 50.73 50.77 50.73 50.77 37.79 53.27 37.79 53.27 50.73 66.21 50.73"/><rect class="cls-1" width="104" height="104"/></svg>
