<svg id="Icons" xmlns="http://www.w3.org/2000/svg" xmlns:xlink="http://www.w3.org/1999/xlink" viewBox="0 0 104 104"><defs><style>.cls-1{fill:url(#Dégradé_sans_nom_46);}.cls-2{fill:#212833;}.cls-3{fill:none;}</style><linearGradient id="Dégradé_sans_nom_46" x1="32.68" y1="71.32" x2="71.32" y2="32.68" gradientUnits="userSpaceOnUse"><stop offset="0" stop-color="#f0b90b"/><stop offset="0.28" stop-color="#f1bc0f"/><stop offset="0.57" stop-color="#f4c41c"/><stop offset="0.86" stop-color="#f8d230"/><stop offset="0.99" stop-color="#fbda3c"/></linearGradient></defs><title>Repayment - 104x104 - light bg</title><circle class="cls-1" cx="52" cy="52" r="27.33"/><path class="cls-2" d="M84.19,84.19a45.52,45.52,0,0,1-64.37,0l1.77-1.77A43,43,0,0,0,82.42,21.58a43,43,0,0,0-60.83,0l-4.33,4.33h9.89v2.5H13V14.25h2.5v9.89l4.33-4.33A45.52,45.52,0,0,1,84.19,84.19Z"/><path class="cls-2" d="M52,71.3c-.39,0-.78,0-1.16,0l.15-2.5a15.78,15.78,0,0,0,2.28,0l.19,2.5C53,71.28,52.49,71.3,52,71.3Zm-4.27-.47a20.28,20.28,0,0,1-2.52-.76l.88-2.34a16.72,16.72,0,0,0,2.19.66Zm8.84-.07L56,68.33a16.58,16.58,0,0,0,2.17-.69L59.07,70A22.62,22.62,0,0,1,56.57,70.76Zm-14.2-2a21.23,21.23,0,0,1-2.18-1.46l1.53-2a15,15,0,0,0,1.9,1.27Zm19.52-.15-1.28-2.15a17.32,17.32,0,0,0,1.87-1.3l1.56,2A18.79,18.79,0,0,1,61.89,68.58Zm-24-3.43a19.1,19.1,0,0,1-1.65-2l2-1.44a16.36,16.36,0,0,0,1.44,1.77Zm28.46-.22-1.86-1.68a16.41,16.41,0,0,0,1.42-1.79L68,62.87A20.1,20.1,0,0,1,66.33,64.93ZM34.62,60.41a19.72,19.72,0,0,1-1-2.44L36,57.2a16.74,16.74,0,0,0,.85,2.12Zm34.89-.27-2.27-1.06A16.14,16.14,0,0,0,68.06,57l2.39.74A20.25,20.25,0,0,1,69.51,60.14ZM32.92,54.91a19,19,0,0,1-.22-2.61l2.5,0a17.38,17.38,0,0,0,.19,2.28Zm38.2-.3-2.47-.33A17.35,17.35,0,0,0,68.8,52l2.5-.07V52A18.76,18.76,0,0,1,71.12,54.61ZM35.38,49.53l-2.47-.36a18.65,18.65,0,0,1,.55-2.57l2.41.7A15.57,15.57,0,0,0,35.38,49.53Zm33.19-.33A17.45,17.45,0,0,0,68,47l2.39-.74a19.23,19.23,0,0,1,.6,2.55ZM36.84,44.74l-2.25-1.08a20.51,20.51,0,0,1,1.29-2.28L38,42.76A16.85,16.85,0,0,0,36.84,44.74ZM67,44.45a16,16,0,0,0-1.16-2l2.06-1.42a20.44,20.44,0,0,1,1.33,2.25ZM39.66,40.6l-1.84-1.69a18.07,18.07,0,0,1,1.91-1.8L41.32,39A17.67,17.67,0,0,0,39.66,40.6Zm24.46-.24a16.43,16.43,0,0,0-1.69-1.53l1.55-2a19.13,19.13,0,0,1,1.94,1.76ZM43.56,37.47,42.3,35.31a19.11,19.11,0,0,1,2.36-1.16l1,2.31A17.71,17.71,0,0,0,43.56,37.47Zm16.6-.16a16.88,16.88,0,0,0-2.07-1L59,34a19,19,0,0,1,2.38,1.11ZM48.21,35.63l-.56-2.44a20.53,20.53,0,0,1,2.59-.41l.23,2.49A17.15,17.15,0,0,0,48.21,35.63Zm7.25-.07a17.08,17.08,0,0,0-2.26-.32l.18-2.49a18.91,18.91,0,0,1,2.6.36Z"/><rect class="cls-3" width="104" height="104"/></svg>
